<svg xmlns="http://www.w3.org/2000/svg" viewBox="0 0 224.55 267.82"><defs><style>.cls-1{fill:#1d1d1b;}</style></defs><g id="Layer_2" data-name="Layer 2"><g id="Layer_1-2" data-name="Layer 1"><path class="cls-1" d="M58.52,267.63c-.94-3.36-.14-5,3.19-4.67a16.73,16.73,0,0,0,2,0c12.89-.18,16.16-3,17.56-15.7a121.67,121.67,0,0,0,.65-12.95q.08-51.45,0-102.91a83,83,0,0,0-.75-9.44c-1.13-9.65-6-14-15.85-14.2-2.15,0-4.29,0-6.55,0-1.12-3.16-1-4.89,2.86-4.88,25.81.1,51.63-.35,77.42.3,10.21.26,20.49,2.3,30.49,4.58,24.21,5.53,39.92,21.15,48.66,43.83a90.17,90.17,0,0,1,.23,65.88c-10.72,28.46-33.22,42.61-61.94,48.18a119.83,119.83,0,0,1-21.31,2.06c-24.47.25-49,.11-73.43.11C60.76,267.78,59.78,267.69,58.52,267.63ZM105,186.28h.15c0,21.65.1,43.3-.08,64.95,0,3.79,1.08,5.35,4.87,5.71,6.11.57,12.16,2.08,18.27,2.3,21.48.77,39.82-6.47,52.76-24,17.51-23.64,18.84-50.17,11.2-77.55-5.87-21.07-20-35.3-40.26-42.47-13.26-4.71-27.4-4.41-41.33-.9-4.16,1-5.7,2.65-5.67,7C105.13,143,105,164.64,105,186.28Z"/><path class="cls-1" d="M.36,160.48c4.79-.73,9.28-1.06,13.56-2.16,5.59-1.43,8.56-5.44,9-11.21.14-1.66.25-3.33.25-5,0-40.15.1-80.3-.09-120.45C23.07,8.41,18.91,4.74,5.47,4.55c-2.82,0-6.58.91-5-4.55H126.59V35.38l-1.08.7a16.1,16.1,0,0,1-2.27-3.52c-1.25-3.77-2-7.72-3.39-11.44-2.46-6.61-7.13-10.92-14.36-11.44-7.62-.55-15.28-.76-22.93-.85-11.62-.14-23.25,0-35.24,0v64.1c.29.27.52.7.76.7,14.32,0,28.67.67,42.93-.16,11.36-.67,15.89-6.41,17.16-18.33.53-4.92.53-4.92,4.74-4.88v43.9c-3.74,1-6,.63-8.5-3.26-2-3.22-6.53-6.55-10.15-6.8-14.75-1-29.58-.93-44.39-1.21-3.48-.06-2.81,2.69-2.82,4.67-.06,18-.11,36,0,54,.06,13,1.22,14.06,14.37,14.1,3.79,0,7.58,0,11.64,0v9H68.1c-21.16,0-42.32,0-63.47,0C1.63,164.69-1,164.71.36,160.48Z"/><path class="cls-1" d="M140.35,124.83c-2.59,7.8-5.16,15.6-7.79,23.38-1.27,3.77-3,7.43-3.88,11.28-1,4.46-3.47,5.91-7.79,5.3a50.63,50.63,0,0,0-6.8-.06c-.28-6.67-1.74-12.24,4.82-17.5,5.86-4.71,9.51-12.17,14.24-18.33,1.54-2,3.41-3.76,5.13-5.64Z"/></g></g></svg>